<svg width="62" height="21" viewBox="0 0 62 21" fill="none" xmlns="http://www.w3.org/2000/svg">
<path d="M9.08965 0.5L0.5 20.4581H4.19977L8.99849 8.837L13.54 20.4581H17.8866L9.29695 0.5H9.08965Z" fill="#6E6EED"/>
<path d="M46.7471 4.73232C46.3417 4.38421 45.8977 4.21029 45.4151 4.21057C44.9325 4.21085 44.4797 4.38477 44.0568 4.73232C43.6339 5.08043 43.4226 5.52396 43.4229 6.06291C43.4231 6.60187 43.6343 7.04176 44.0564 7.3826C44.4791 7.72175 44.9318 7.89119 45.4147 7.89091C45.8976 7.89063 46.3417 7.72119 46.7471 7.3826C47.1523 7.04316 47.3549 6.60397 47.3549 6.06501C47.3549 5.52606 47.1523 5.08183 46.7471 4.73232Z" fill="#6E6EED"/>
<path d="M43.5002 20.5H47.1218V9.09924L43.5002 12.092V20.5Z" fill="#6E6EED"/>
<path d="M58.9517 9.01102C58.0026 8.48102 56.8814 8.21518 55.5882 8.2135C54.3117 8.2135 53.1818 8.47934 52.1986 9.01102C51.2154 9.5427 50.4522 10.2689 49.9091 11.1895C49.3657 12.1129 49.0942 13.1566 49.0945 14.3204C49.0945 15.6076 49.3705 16.712 49.9224 17.6334C50.4654 18.5475 51.2611 19.282 52.2119 19.7469C53.1865 20.2332 54.2949 20.4767 55.537 20.4772C56.8649 20.4772 58.0027 20.2077 58.9504 19.6688C59.8981 19.1298 60.6269 18.395 61.1366 17.4643C61.6453 16.5336 61.8997 15.4856 61.8997 14.3204C61.8997 13.1552 61.6453 12.1115 61.1366 11.1895C60.6285 10.268 59.9002 9.54186 58.9517 9.01102ZM58.1608 15.818C57.9205 16.2583 57.5612 16.6208 57.1247 16.8632C56.6748 17.1184 56.1351 17.2462 55.5054 17.2464C54.9168 17.2464 54.3915 17.131 53.9294 16.9001C53.4786 16.68 53.1014 16.3317 52.8442 15.8982C52.5825 15.4614 52.4517 14.938 52.4517 14.3279C52.4517 13.7756 52.5804 13.2808 52.838 12.8437C53.0977 12.4047 53.4735 12.0472 53.9232 11.8111C54.3894 11.5593 54.925 11.4334 55.53 11.4334C56.1435 11.4334 56.6751 11.5593 57.1247 11.8111C57.5605 12.0488 57.92 12.4071 58.1608 12.8437C58.4022 13.2805 58.5228 13.7753 58.5225 14.3279C58.5222 14.8806 58.4014 15.3777 58.1599 15.8193L58.1608 15.818Z" fill="#6E6EED"/>
<path d="M35.1949 11.8159C35.6054 11.5559 36.0813 11.4202 36.5661 11.4247C37.1355 11.4247 37.6314 11.5247 38.0538 11.7248C38.4567 11.9154 38.776 12.1026 39.0145 12.2843L40.0065 9.39733C39.6479 9.18804 39.2718 9.01079 38.8826 8.86761C38.1333 8.58945 37.2493 8.45024 36.2306 8.44996C35.2186 8.44851 34.2209 8.69025 33.32 9.15513C32.4026 9.61877 31.6284 10.3267 31.0813 11.2022C30.5119 12.0977 30.2272 13.1804 30.2272 14.4502C30.2272 15.7201 30.4908 16.8028 31.0181 17.6982C31.5453 18.5937 32.2871 19.2808 33.2434 19.7596C34.1997 20.2384 35.3246 20.4781 36.6181 20.4786C37.3698 20.4741 38.1162 20.3509 38.8301 20.1134C39.1812 20.0009 39.5229 19.8606 39.8521 19.6937L38.8797 16.8634C38.6282 17.0735 38.3391 17.2331 38.028 17.3335C37.6729 17.4492 37.3014 17.5059 36.9282 17.5014C36.3077 17.5014 35.7688 17.3668 35.3114 17.0976C34.8599 16.8335 34.4887 16.4498 34.2379 15.9882C33.9786 15.5176 33.8448 14.9873 33.8495 14.449C33.8495 13.858 33.9704 13.3362 34.2121 12.8837C34.4404 12.4465 34.7795 12.078 35.1949 11.8159Z" fill="#6E6EED"/>
<path d="M22.8735 11.8159C23.284 11.5559 23.7599 11.4202 24.2447 11.4247C24.8141 11.4247 25.31 11.5247 25.7324 11.7248C26.1353 11.9154 26.4546 12.1026 26.6931 12.2843L27.6851 9.39733C27.3265 9.18804 26.9504 9.01079 26.5612 8.86761C25.8119 8.58945 24.9279 8.45024 23.9092 8.44996C22.8972 8.44851 21.8995 8.69025 20.9986 9.15513C20.0812 9.61877 19.307 10.3267 18.7599 11.2022C18.1905 12.0977 17.9058 13.1804 17.9058 14.4502C17.9058 15.7201 18.1694 16.8028 18.6967 17.6982C19.2239 18.5937 19.9657 19.2808 20.922 19.7596C21.8783 20.2384 23.0032 20.4781 24.2967 20.4786C25.0484 20.4741 25.7948 20.3509 26.5087 20.1134C26.8598 20.0009 27.2015 19.8606 27.5307 19.6937L26.5583 16.8634C26.3068 17.0735 26.0177 17.2331 25.7066 17.3335C25.3515 17.4492 24.98 17.5059 24.6068 17.5014C23.9863 17.5014 23.4474 17.3668 22.99 17.0976C22.5385 16.8335 22.1673 16.4498 21.9165 15.9882C21.6572 15.5176 21.5234 14.9873 21.5281 14.449C21.5281 13.858 21.649 13.3362 21.8907 12.8837C22.119 12.4465 22.4581 12.078 22.8735 11.8159Z" fill="#6E6EED"/>
</svg>
